<?xml version="1.0" standalone="no"?>
<!DOCTYPE svg PUBLIC "-//W3C//DTD SVG 20010904//EN"
 "http://www.w3.org/TR/2001/REC-SVG-20010904/DTD/svg10.dtd">
<svg version="1.0" xmlns="http://www.w3.org/2000/svg"
 width="300.000000pt" height="300.000000pt" viewBox="0 0 300.000000 300.000000"
 preserveAspectRatio="xMidYMid meet">
<metadata>
Created by potrace 1.10, written by Peter Selinger 2001-2011
</metadata>
<g transform="translate(0.000000,300.000000) scale(0.100000,-0.100000)"
fill="#000000" stroke="none">
<path d="M1325 2984 c-241 -37 -458 -116 -640 -234 -338 -220 -561 -552 -651
-970 -28 -128 -26 -448 4 -582 120 -539 487 -949 1002 -1118 174 -57 297 -73
515 -67 247 7 397 43 608 147 156 77 261 153 392 285 210 209 338 441 407 734
29 127 36 409 13 556 -47 304 -197 598 -415 815 -126 126 -247 214 -395 286
-223 108 -374 144 -630 149 -99 2 -193 1 -210 -1z m358 -69 c159 -21 300 -65
452 -140 159 -79 271 -162 396 -293 252 -262 382 -570 396 -937 6 -175 -15
-332 -67 -488 -145 -433 -484 -772 -917 -917 -281 -93 -616 -91 -898 5 -265
91 -519 276 -691 505 -82 108 -185 315 -224 449 -147 503 -9 1033 365 1406
195 196 411 318 669 380 191 46 333 54 519 30z"/>
<path d="M850 2370 c0 -38 2 -40 30 -40 28 0 30 2 30 40 0 38 -2 40 -30 40
-28 0 -30 -2 -30 -40z"/>
<path d="M1040 2151 l0 -261 30 0 30 0 -2 258 -3 257 -27 3 -28 3 0 -260z"/>
<path d="M468 2385 c-5 -5 -8 -118 -8 -252 l0 -243 35 0 35 0 0 99 0 98 80 5
c91 5 124 22 152 79 35 67 13 156 -48 191 -33 19 -232 37 -246 23z m213 -84
c18 -19 29 -40 29 -58 -1 -69 -47 -102 -134 -95 l-46 4 0 89 0 89 61 0 c54 0
64 -3 90 -29z"/>
<path d="M1640 2315 c0 -52 -1 -55 -25 -55 -33 0 -35 -37 -2 -42 21 -3 22 -7
27 -139 3 -94 9 -141 19 -152 16 -20 73 -37 124 -37 32 0 37 3 37 24 0 21 -5
24 -51 28 -28 3 -55 12 -60 19 -5 8 -9 69 -9 137 l0 122 60 0 c53 0 60 2 60
20 0 18 -7 20 -60 20 l-60 0 0 55 c0 54 0 55 -30 55 -30 0 -30 -1 -30 -55z"/>
<path d="M1268 2258 c-32 -9 -38 -14 -38 -38 l0 -28 38 14 c92 33 182 3 182
-60 0 -9 -24 -15 -75 -19 -102 -9 -142 -27 -161 -74 -31 -73 3 -143 78 -164
47 -12 101 1 134 32 l24 22 0 -26 c0 -23 4 -27 30 -27 l30 0 0 138 c0 157 -11
193 -70 224 -38 20 -111 22 -172 6z m182 -210 c0 -18 -9 -47 -20 -65 -43 -71
-170 -55 -170 22 0 49 44 73 138 74 l52 1 0 -32z"/>
<path d="M1970 2248 c-66 -33 -92 -90 -88 -185 2 -54 9 -79 24 -100 51 -68
126 -91 229 -70 55 11 60 14 63 41 3 27 2 28 -25 21 -94 -25 -154 -23 -190 7
-16 13 -43 68 -43 88 0 6 50 10 140 10 l140 0 0 38 c0 51 -37 122 -79 149 -45
30 -112 30 -171 1z m149 -55 c17 -16 33 -40 37 -55 l6 -28 -111 0 c-61 0 -111
2 -111 4 0 24 29 72 54 87 45 27 90 24 125 -8z"/>
<path d="M2352 2255 c-42 -18 -68 -75 -55 -119 11 -38 60 -72 116 -81 90 -15
124 -58 77 -100 -25 -22 -111 -23 -163 -1 l-37 15 0 -30 c0 -38 30 -50 126
-52 103 -2 153 33 154 109 0 63 -26 83 -152 118 -61 17 -78 39 -58 75 17 32
109 40 175 15 13 -6 16 -1 13 22 -2 20 -10 30 -28 35 -43 12 -134 9 -168 -6z"/>
<path d="M850 2075 l0 -185 30 0 30 0 0 185 0 185 -30 0 -30 0 0 -185z"/>
<path d="M1423 1445 c-81 -122 -103 -163 -103 -190 l0 -35 110 0 110 0 0 -55
0 -55 35 0 35 0 0 55 0 55 36 0 c33 0 35 2 32 28 -2 22 -8 28 -35 30 l-33 3 0
160 0 159 -42 0 -43 0 -102 -155z m117 -40 l0 -125 -81 0 c-44 0 -79 4 -77 8
6 15 151 242 155 242 2 0 3 -56 3 -125z"/>
<path d="M1332 793 c3 -33 7 -38 31 -41 26 -3 27 -1 27 37 0 39 -1 41 -31 41
-29 0 -30 -2 -27 -37z"/>
<path d="M1581 816 c-31 -17 -50 -53 -51 -93 0 -30 -3 -33 -30 -33 -25 0 -30
-4 -30 -25 0 -21 5 -25 30 -25 l30 0 0 -160 0 -160 30 0 30 0 0 160 0 160 50
0 c47 0 50 2 50 25 0 23 -3 25 -50 25 -49 0 -50 1 -50 29 0 42 24 61 76 61 40
0 44 2 44 25 0 24 -3 25 -52 25 -29 -1 -64 -7 -77 -14z"/>
<path d="M960 565 l0 -245 150 0 150 0 0 25 0 25 -115 0 -115 0 0 220 0 220
-35 0 -35 0 0 -245z"/>
<path d="M1863 691 c-74 -19 -121 -77 -130 -164 -13 -130 66 -217 197 -216 79
1 124 19 128 52 4 32 6 31 -48 12 -107 -38 -210 5 -210 87 l0 28 136 0 136 0
-4 55 c-9 109 -98 172 -205 146z m122 -83 c14 -16 25 -38 25 -49 0 -18 -8 -19
-105 -19 -97 0 -105 1 -105 19 0 31 42 72 80 80 51 10 77 3 105 -31z"/>
<path d="M1330 505 l0 -185 30 0 30 0 0 185 0 185 -30 0 -30 0 0 -185z"/>
</g>
</svg>
